<?xml version="1.0" encoding="UTF-8" standalone="no"?>
<svg height="48" width="48" xmlns="http://www.w3.org/2000/svg" xmlns:xlink="http://www.w3.org/1999/xlink">
  <defs>
    <linearGradient id="a">
      <stop offset="0"/>
      <stop offset="1" stop-opacity="0"/>
    </linearGradient>
    <linearGradient id="b" gradientUnits="userSpaceOnUse" x1="32.249" x2="16.546" y1="42.037" y2="4.902">
      <stop offset="0" stop-color="#c61423"/>
      <stop offset="1" stop-color="#f58273"/>
    </linearGradient>
    <linearGradient id="c" gradientUnits="userSpaceOnUse" x1="17.197" x2="27.308" y1="11.627" y2="31.453">
      <stop offset="0" stop-color="#fcfcfc"/>
      <stop offset="1" stop-color="#fbc2bb"/>
    </linearGradient>
    <linearGradient id="d" gradientUnits="userSpaceOnUse" x1="22.137" x2="29.967" xlink:href="#a" y1="1.975" y2="1.975"/>
    <linearGradient id="e" gradientUnits="userSpaceOnUse" x1="19.732" x2="33.161" xlink:href="#a" y1="23.413" y2="36.842"/>
  </defs>
  <rect fill="url(#b)" height="40" rx="20" width="40" x="4" y="4"/>
  <path d="m4.01168 23.49995c-.004.16654-.0117.33244-.0117.5 0 11.08 8.92 20 20 20s20-8.92 20-20c0-.16756-.008-.33346-.0117-.5-.26467 10.84613-9.07616 19.5-19.98828 19.5s-19.72361-8.65387-19.98828-19.5z" fill="#2c2e31" fill-opacity=".235294"/>
  <path d="m34.318359 15.289062-5.029297 4.71875-14.285156 8.556641-3.613281 4.427735 10.933594 10.933593c.552761.045474 1.110896.074219 1.675781.074219 10.761933 0 19.484574-8.416658 19.976562-19.052734z" fill="url(#e)" opacity=".2"/>
  <path d="m23.273695 1.3267293.291793-3.5533004h29.071309v8.4031773h-30.492629l-.0075-1.9898482z" fill="url(#d)" opacity=".2" transform="matrix(.70710678 .70710678 -.70710678 .70710678 0 0)"/>
  <path d="m17.929939 15.000532c-.066.001-.14042.0063-.2259.01191-.32397.02068-6.43749 1.165345-6.82657 1.27826-.41135.119308-.76264.371368-.84835.610496-.1461496.406374.27742 1.727078.83656 2.613839 2.230624 2.648874 4.707212 3.32193 7.13432 4.749286.27856.326543.38857.484168-1.74822 1.430265-3.33963 1.478788-4.420575 2.736552-5.060195 4.597291-.18889.549824-.27666 2.003781-.14348 2.369655.17285.474275.27704.569763 3.50379-.04233 3.24141-.614905 2.973365-.650893 3.243685-.906996.22018-.208603.23277-.258913.32893-1.245886.0554-.565567.16981-1.669919.25375-1.96248.19462-.679411.68413-1.388918 1.21724-1.764163 2.021822-1.422952 5.827192-.713372 7.886432 1.47015.77593.822735 1.26317 1.997092 1.65202 3.273095.22437.736239.45222 1.055898.80606 1.126286.32551.06466.33352-.03713 4.45785-.820243 2.2942-.435613 3.24897-.647466 3.38395-.752504.29-.225872.29114-.778599.002-1.691905-.49578-1.569264-1.35592-2.612445-2.94913-3.819409-.78818-.597093-1.78343-1.161594-3.46854-1.968493-1.60279-.767486-2.366141-.975129-2.366141-1.213473 0-.197081.629491-.284894 1.900871-.665298 2.78583-.833704 4.128249-2.003217 4.128249-4.168698 0-.950306-.17934-1.717174-.45824-1.965996-.37091-.330941-1.022229-.341419-2.579659-.05975-4.99234.902744-4.648551.867551-4.880791 1.24338-.12287.198752-.11752.245395.10837 1.148704.12936.517868.23354 1.165717.23277 1.316009-.002.319649-.417279.853636-.620399 1.044042-.49701.465626-1.62362.782412-2.77763.782412-1.39578 0-2.44743-.479802-3.49203-1.592225-.754822-.803807-1.140162-1.581651-1.654392-3.012898-.45157-1.257043-.5135-1.420894-.97759-1.412829z" fill="url(#c)" stroke-width="1.022075"/>
</svg>